<?xml version="1.0" encoding="UTF-8"?>
<svg width="26px" height="26px" viewBox="0 0 26 26" version="1.1" xmlns="http://www.w3.org/2000/svg" xmlns:xlink="http://www.w3.org/1999/xlink">
    <!-- Generator: Sketch 52.6 (67491) - http://www.bohemiancoding.com/sketch -->
    <title>Shape</title>
    <desc>Created with Sketch.</desc>
    <g id="Page-1" stroke="none" stroke-width="1" fill="none" fill-rule="evenodd">
        <path d="M21.2445452,4.29559748 L20.7609309,3.87973303 C18.5872337,2.02528559 15.8606144,1 12.9994866,1 C11.4433986,1 9.92684179,1.30291362 8.48215966,1.89231164 L8.15153589,2.02836606 C4.61735261,3.59273521 2.03910328,6.77538185 1.25412852,10.5412656 L1.17095919,10.9407008 L1.18071361,10.9453215 C1.06314709,11.626107 1,12.3151072 1,13.0005134 C1,16.5363881 2.53863267,19.83866 5.22931462,22.128995 L5.2252075,22.1392633 L5.53426885,22.385188 C7.68229657,24.0958799 10.2636263,25 12.9994866,25 C14.4436553,25 15.8765295,24.7335387 17.2590913,24.2078039 L17.5902285,24.0820177 L17.5902285,24.0671287 C21.5895439,22.4632268 24.3218106,18.8929534 24.8742192,14.5700167 L24.9543082,13.9159286 C24.9753572,13.6376588 25,13.3229367 25,13.0010268 C24.9989732,9.68181235 23.6656969,6.5905532 21.2445452,4.29559748 Z M23.9721913,13.0005134 C23.9721913,13.0616095 23.9711645,13.1227057 23.9696244,13.1832884 C22.528536,12.7504813 21.0386755,12.5317674 19.5303328,12.5317674 C18.2283734,12.5317674 16.9315479,12.696573 15.6691195,13.0225902 L15.6665526,13.0154024 L15.6634722,13.0164292 C15.4026696,12.3145938 15.120818,11.6297009 14.8209977,10.972019 L14.8256182,10.9699653 L14.8215111,10.9617507 C17.3443142,9.72493903 19.4579447,7.84892825 20.9863096,5.49030933 C22.9166595,7.53471955 23.9721913,10.1777692 23.9721913,13.0005134 Z M20.2187901,4.76588371 C18.7854026,7.04184315 16.7765038,8.84751637 14.3651065,10.0299063 C13.0287499,7.35040431 11.312484,4.88807599 9.25173269,2.69426261 C10.4571746,2.25324092 11.7139557,2.02682582 12.9994866,2.02682582 C15.6691195,2.02682582 18.2119449,3.00282377 20.2187901,4.76588371 Z M8.24497305,3.11628802 C10.3478224,5.29880631 12.0918114,7.76472853 13.4379225,10.4570658 C11.7154959,11.1573611 9.89706512,11.5121294 8.02524172,11.5121294 C6.05638744,11.5121294 4.14965346,11.1209087 2.35175836,10.3492491 C3.13467956,7.19638044 5.30272953,4.53433449 8.24497305,3.11628802 Z M2.02678189,13.0005134 C2.02678189,12.4588628 2.06887995,11.9146451 2.14948233,11.3740213 C4.01617181,12.1446541 5.98861983,12.5384418 8.02421494,12.5384418 C10.0469753,12.5384418 12.0101823,12.1467077 13.8701977,11.3837762 C14.1551296,12.0075728 14.4220929,12.6549865 14.6710875,13.3213965 C10.7344057,14.6234116 7.50620347,17.4369144 5.67442457,21.1601848 C3.34927697,19.075215 2.02678189,16.1369529 2.02678189,13.0005134 Z M6.49020279,21.825568 C8.18490631,18.2342446 11.2585779,15.5177769 15.0212202,14.2814786 C16.0053906,17.2130664 16.5223753,20.2658195 16.5608796,23.3688872 C15.3995893,23.7698627 14.202875,23.9731742 12.9994866,23.9731742 C10.6312142,23.9736876 8.3892359,23.2323193 6.49020279,21.825568 Z M17.5732866,22.9663715 C17.4973047,19.9089976 16.971079,16.9024515 16.0048772,14.008343 C18.5964747,13.3557951 21.3338752,13.4374278 23.877214,14.240919 C23.446479,18.146451 21.0838539,21.4097035 17.5732866,22.9663715 Z" id="Shape" stroke="#FFFFFF" stroke-width="0.5" fill="#FFFFFF" fill-rule="nonzero"></path>
    </g>
</svg>