<?xml version="1.0" encoding="UTF-8"?>
<svg width="30px" height="33px" viewBox="0 0 30 33" version="1.1" xmlns="http://www.w3.org/2000/svg" xmlns:xlink="http://www.w3.org/1999/xlink">
    <!-- Generator: Sketch 52.6 (67491) - http://www.bohemiancoding.com/sketch -->
    <title>Path</title>
    <desc>Created with Sketch.</desc>
    <g id="Page-1" stroke="none" stroke-width="1" fill="none" fill-rule="evenodd">
        <path d="M13.8967776,20.5756942 L0.975766393,20.5756942 C0.150052973,20.5756942 -0.301017088,19.6161036 0.227591762,18.9840537 L15.8100735,0.352308632 C16.4326452,-0.392091222 17.645255,0.132400689 17.5246327,1.09390947 L16.1032224,12.4243058 L29.0242336,12.4243058 C29.849947,12.4243058 30.3010171,13.3838964 29.7724082,14.0159463 L14.1899265,32.6476914 C13.5673548,33.3920912 12.354745,32.8675993 12.4753673,31.9060905 L13.8967776,20.5756942 Z M15.1798419,4.13750444 L3.05509433,18.6348875 L15,18.6348875 C15.585802,18.6348875 16.0390443,19.1464663 15.9663845,19.7256546 L14.8201581,28.8624956 L26.9449057,14.3651125 L15,14.3651125 C14.414198,14.3651125 13.9609557,13.8535337 14.0336155,13.2743454 L15.1798419,4.13750444 Z" id="Path" fill="#FFFFFF" fill-rule="nonzero"></path>
    </g>
</svg>