<?xml version="1.0" encoding="UTF-8"?>
<svg width="68px" height="32px" viewBox="0 0 68 32" version="1.1" xmlns="http://www.w3.org/2000/svg" xmlns:xlink="http://www.w3.org/1999/xlink">
    <!-- Generator: Sketch 52.6 (67491) - http://www.bohemiancoding.com/sketch -->
    <title>Shape</title>
    <desc>Created with Sketch.</desc>
    <g id="Page-1" stroke="none" stroke-width="1" fill="none" fill-rule="evenodd">
        <path d="M52.6553675,18.8526419 L52.4212546,18.9557431 C51.9588572,19.1619457 51.368232,19.4002458 50.6484076,19.6696709 C49.9285832,19.9400685 49.1388163,20.2231107 48.2781355,20.5187974 C47.4397974,20.8076755 46.5917451,21.0654287 45.7349501,21.2910843 C44.9616974,21.4972869 44.1767876,21.6519388 43.383135,21.7540674 C42.650682,21.8435516 42.0532569,21.8240985 41.5908595,21.6957082 C41.25669,21.5926069 40.941949,21.393213 40.6466364,21.0984989 C40.3513238,20.8018396 40.3066383,20.2941144 40.5116086,19.5733782 C39.201159,20.525606 38.121908,21.2268892 37.2738557,21.6772278 C36.4267749,22.1265937 35.7710643,22.3522494 35.308667,22.3522494 L34.9997545,22.3522494 C34.8501553,22.2870816 34.7131847,22.1956521 34.5946711,22.0818517 C34.4538148,21.9534614 34.3955294,21.7209972 34.4217578,21.387377 C34.4479862,21.1296238 34.5373571,20.8281012 34.6918134,20.4808639 C34.8278126,20.1744781 34.9978116,19.8690648 35.2027819,19.5636516 C34.7967271,19.6998231 34.337244,19.8505844 33.8243327,20.0178808 C32.835424,20.3388565 31.7824015,20.6598322 30.6642936,20.9827532 C29.5510429,21.3027562 28.4339064,21.6052514 27.3109414,21.8892663 C26.1928336,22.1713358 25.2233534,22.3522494 24.4005581,22.429089 L24.1693594,22.429089 C23.8614184,22.429089 23.6292483,22.3717024 23.4757634,22.2559567 C23.3213072,22.1402109 23.2183363,22.0176565 23.1668509,21.8892663 C23.0648515,21.6577747 23.0386231,21.3805685 23.0901085,21.0586201 C23.1415939,20.7376445 23.2319363,20.3904071 23.3601641,20.0169082 C23.4883919,19.6443819 23.6496481,19.2776915 23.8419899,18.916837 C24.0343317,18.5569552 24.2208449,18.2359795 24.4005581,17.9529373 C23.7837045,18.0813276 23.0191946,18.2223624 22.1079998,18.3770143 C21.1948622,18.5316662 20.3672098,18.5832168 19.621157,18.5316662 C19.4414437,18.5316662 19.2743589,18.4801156 19.1208741,18.3770143 C19.0946457,18.3770143 19.0752172,18.3702057 19.0625887,18.3575612 C19.0489888,18.3449167 19.0295604,18.3381081 19.0052748,18.3381081 C18.8265329,18.1883195 18.7157907,17.9723904 18.6963623,17.7399262 C18.6701338,17.4957902 18.7099622,17.232201 18.8119616,16.9491589 C18.9839035,16.5727419 19.249102,16.2478756 19.5832715,16.0037396 C19.9164696,15.7586309 20.2768675,15.6370492 20.661551,15.6370492 C20.8927497,15.6370492 21.0608058,15.7206974 21.1628053,15.8879938 C21.2657761,16.0552902 21.2920045,16.2799732 21.2395477,16.563988 C21.1628053,16.8723192 20.9957205,17.1932949 20.7392648,17.5278877 C21.2531476,17.5025987 21.7864588,17.4442395 22.3391985,17.3547554 C22.8414242,17.2730525 23.3426785,17.1835684 23.8419899,17.0843577 C24.2247306,17.010436 24.6035855,16.9199792 24.9785548,16.81396 L25.4409522,16.6797338 C25.6721508,16.6272105 25.8266071,16.6797338 25.9033495,16.8334131 C26.0063203,16.988065 25.9936918,17.1553614 25.865464,17.3353023 C25.6595223,17.6436335 25.4409522,17.9976794 25.2097535,18.3964673 C24.9785548,18.7952553 24.7794131,19.1804261 24.6123283,19.5539251 C24.4452436,19.927424 24.3170157,20.2620169 24.2276448,20.5577036 C24.1373025,20.8533902 24.1305025,21.0780732 24.2082164,21.2327251 C24.2354162,21.2862211 24.2752446,21.3329084 24.3238157,21.367924 C24.3743297,21.4068301 24.4773005,21.412666 24.6317568,21.387377 C25.4030667,21.3095648 26.3346613,21.1364324 27.4265408,20.8660347 C28.5184202,20.5966097 29.6161282,20.300923 30.7216076,19.9789747 C31.7678302,19.6755068 32.8091956,19.3535584 33.8437611,19.0141024 C34.6296423,18.7563492 35.4135807,18.4927601 36.1955762,18.223335 L36.583174,18.0929994 C36.7832871,17.9393202 36.9882574,17.802176 37.1971133,17.6825396 C37.3515696,17.580411 37.5439113,17.4831457 37.77511,17.3926889 C38.0150515,17.3012594 38.2695643,17.2487362 38.5269914,17.238037 C38.797047,17.2263651 39.0729311,17.2711072 39.3546438,17.3742085 C39.6382993,17.4763371 39.9209834,17.6689225 40.2026961,17.9529373 C40.3833807,18.1328782 40.3182954,18.3643698 40.0103543,18.647412 C39.8821265,18.7767749 39.7470987,18.8536145 39.6062423,18.8789035 C39.4644146,18.9041925 39.3546438,18.866259 39.2779014,18.7631577 C38.7387616,18.223335 38.1355079,18.1455227 37.4671689,18.5316662 C37.3039698,18.6289315 37.1485422,18.7388414 36.9999144,18.8584778 C36.9678575,18.8905754 36.9319148,18.9207276 36.8930579,18.9479619 C36.6045453,19.1979339 36.3442039,19.4790308 36.1178624,19.7854166 C35.9507776,20.0071816 35.8089498,20.2474271 35.6943219,20.4993443 C35.5913511,20.7308359 35.5398657,20.9243939 35.5398657,21.0780732 C35.5398657,21.2074361 35.5466656,21.2774672 35.5583227,21.2910843 C35.5719226,21.3037288 35.5913511,21.3095648 35.6166081,21.3095648 C35.6418651,21.3095648 35.7390074,21.2969203 35.9051207,21.2716313 C36.0731769,21.2453696 36.3616895,21.1305965 36.7735729,20.9243939 C37.1835134,20.7181914 37.7362531,20.3904071 38.4298491,19.9400685 C39.1234451,19.4897299 40.0103543,18.8399974 41.0896053,17.9918435 C41.3985178,17.7603519 41.642345,17.6436335 41.8220582,17.6436335 C41.9765145,17.6436335 42.0794853,17.7078286 42.1309707,17.8371916 C42.1824561,17.9266757 42.1824561,18.0365855 42.1309707,18.1260697 C42.076571,18.2213897 42.0250856,18.3176824 41.9765145,18.4159204 C41.3081754,19.6764794 41.3722894,20.4361219 42.1688562,20.6919297 C42.682739,20.8465817 43.4287919,20.8212927 44.405072,20.6150901 C45.452266,20.3904071 46.4878029,20.1132009 47.507797,19.7854166 C48.5676195,19.4498512 49.6157849,19.0763522 50.649379,18.666865 C51.450803,18.3507526 52.2463984,18.0219957 53.0381082,17.6825396 C53.0876508,17.6650319 53.1381647,17.65336 53.1906216,17.6455788 L53.3654777,17.25749 C54.0260454,15.8072636 54.7070129,14.3667637 55.4083803,12.9359903 C56.1019763,11.5207794 56.8218008,10.1182129 57.5668822,8.72926364 C58.2429926,7.46384137 58.9501886,6.21592685 59.6865272,4.9855201 C60.2820095,3.9866049 60.912463,3.00811542 61.5749735,2.05199697 C62.1529702,1.22913207 62.6483959,0.625114206 63.0593079,0.238970744 C63.1885071,0.109607821 63.3225635,0.0327681898 63.4643912,0.00747919734 C63.6052476,-0.0178097952 63.7150184,0.0210963471 63.7917608,0.123224971 C63.9209601,0.200064602 63.9646741,0.303165879 63.9267886,0.431556148 C63.8879317,0.560919071 63.8043893,0.689309341 63.6761615,0.81769961 C63.3157635,1.15131978 62.8669661,1.7183768 62.3278263,2.51595272 C61.7090299,3.43802829 61.1184047,4.37663898 60.5540079,5.33275742 C59.8545834,6.51453149 59.1794444,7.71186802 58.5305338,8.9228217 C57.8107094,10.2592477 57.1171134,11.6102635 56.4497458,12.9739238 C55.7716925,14.3560645 55.1101534,15.7450138 54.4641571,17.1427169 C53.8560463,18.4538539 53.2770782,19.7795807 52.7301671,21.1169793 C54.3485578,20.8076755 56.3594034,20.3835986 58.7617325,19.8437758 C61.165033,19.3029805 64.0618164,18.5443107 67.4530541,17.5667939 C67.6075103,17.5152432 67.7425381,17.5278877 67.8581375,17.6057 C67.9737368,17.6825396 68.0184223,17.7846683 67.9931653,17.9140312 C67.9931653,18.0433941 67.9348799,18.1708117 67.8192806,18.3001746 C67.7104812,18.4237016 67.5705963,18.5170764 67.4141972,18.5695997 C63.8947316,19.5480892 60.9008059,20.3194034 58.4343629,20.8845151 C55.9669485,21.4515722 53.9250174,21.8892663 52.3056552,22.1975975 C52.0569709,22.8949901 51.7995439,23.5894647 51.5353168,24.2810214 C52.0491996,24.899629 52.3959976,25.5746506 52.5757108,26.3080314 C52.7554241,27.0404395 52.7165672,27.6648831 52.4601115,28.1794168 C52.4086261,28.3087798 52.2357128,28.5266541 51.9394288,28.8349853 C51.6441162,29.1442892 51.1885188,29.2979684 50.5716652,29.2979684 L50.5328083,29.2979684 C50.378352,29.2979684 50.2122387,29.2473904 50.031554,29.1442892 C49.8518407,29.0411879 49.7362414,28.8096963 49.684756,28.4498145 C49.6332706,28.08896 49.6662989,27.5938794 49.7818983,26.9635999 C49.8974976,26.3333204 50.0830394,25.6067482 50.3404665,24.7838833 C49.8780692,24.1915372 49.312701,23.7801048 48.6443619,23.5486132 C48.258707,23.445512 47.9507659,23.3356021 47.7195672,23.2198563 C47.4883686,23.1041106 47.4368832,22.9047166 47.565111,22.6216744 C47.6165964,22.4679951 47.6943103,22.3454408 47.7963097,22.2559567 C47.8983091,22.1654999 48.0595653,22.0818517 48.2781355,22.005012 C48.4967056,21.9271998 48.7920182,21.8561961 49.1650447,21.7929736 C49.6488133,21.7064074 50.1296677,21.6101147 50.6095507,21.5031228 L51.071948,21.4253105 C51.2264043,21.4000215 51.407089,21.3747325 51.6120592,21.3484709 C51.9326288,20.5470044 52.2803982,19.7144129 52.6553675,18.8516692 L52.6553675,18.8526419 Z M31.5317744,5.6410886 C31.4288035,5.97568142 31.2112048,6.16826683 30.8770353,6.21981747 L14.5726716,8.03381635 L3.66553418,31.5370169 C3.4848495,31.8453481 3.25365082,32 2.97193815,32 L2.89422431,32 C2.61154022,31.9484494 2.53382638,31.755864 2.66302564,31.4212711 C3.41199277,29.7667874 4.15124568,28.1064678 4.8788415,26.4432302 C5.58312318,24.8383519 6.2640907,23.223747 6.92174407,21.5994155 C7.51042641,20.1482164 8.0757946,18.6882634 8.61784863,17.2195565 C9.06276037,16.02222 9.4736723,14.812239 9.85155584,13.5915588 C10.1721254,12.5362297 10.3848671,11.6812672 10.4868665,11.024726 C10.5898373,10.3691575 10.5636089,9.96453366 10.4101241,9.80988175 L10.4101241,9.7709756 C10.2041824,9.74568661 9.77481343,9.71942497 9.11813148,9.69413597 C8.46339238,9.66884698 7.66682552,9.64842126 6.72940232,9.63577676 C5.7910077,9.62313226 4.77004213,9.61632369 3.66553418,9.61632369 L0.311210555,9.61632369 C0.0285264622,9.61632369 -0.0618158768,9.44902728 0.0411549612,9.11540711 C0.118868801,8.80610328 0.323839054,8.62616237 0.658008567,8.57461173 L13.9937035,7.06991668 L16.4990034,1.70475965 C16.5835172,1.56858816 16.6952309,1.44992442 16.826373,1.35752233 C16.9682007,1.25539371 17.1032285,1.21648757 17.2314564,1.24177656 C17.5403689,1.29429985 17.6297398,1.48688526 17.501512,1.82050543 L15.1118114,6.9541709 L31.1072625,5.17907816 C31.466689,5.12752752 31.6075454,5.28120678 31.5308029,5.64206125 L31.5317744,5.6410886 Z M13.4924492,8.14956212 L9.25315928,8.61254522 C10.1012116,8.66409586 10.6665797,8.72148242 10.9492638,8.7866502 C11.2319479,8.85084534 11.3990327,8.94713804 11.4505181,9.07552831 C11.6554884,9.43638278 11.6749168,10.0666623 11.5078321,10.9673395 C11.3417187,11.867044 11.0774917,12.9350176 10.7180652,14.169315 L13.4924492,8.14956212 Z M20.1612681,16.7166947 C20.0320689,16.7166947 19.9300695,16.8071514 19.8523556,16.9870923 C19.8523556,17.013354 19.8270986,17.1028381 19.7756132,17.25749 C19.8776126,17.1543888 19.9300695,17.0901936 19.9300695,17.063932 C19.9815549,17.013354 20.0262404,16.9549948 20.0641258,16.8907996 C20.0990971,16.8334131 20.131154,16.7760265 20.1612681,16.7166947 Z M51.0729194,25.8246226 C50.8154924,26.85369 50.7261214,27.5608092 50.8028639,27.9469526 C50.8028639,28.1531552 50.8407494,28.2562565 50.9184632,28.2562565 C51.1496619,28.2562565 51.2973182,28.2299948 51.3614321,28.1794168 C51.4080604,28.142456 51.4527458,28.1035498 51.4964599,28.0636711 C51.5994307,27.8059179 51.6188592,27.4781336 51.5537738,27.078373 C51.4906313,26.679585 51.3303465,26.261344 51.0729194,25.8246226 Z M49.6080136,22.698514 C49.9936685,22.827877 50.3919519,23.0846575 50.8028639,23.4698283 C50.8543493,23.29086 50.9116632,23.1157824 50.9767486,22.9494587 L51.1885188,22.3892102 C51.0593195,22.4154718 50.9378917,22.4417335 50.8222923,22.4670225 C50.706693,22.4932841 50.5842937,22.5185731 50.4560658,22.5438621 C50.1714389,22.5817956 49.8877834,22.6333462 49.6080136,22.698514 Z" id="Shape" fill="#FFFFFF" fill-rule="nonzero"></path>
    </g>
</svg>