<?xml version="1.0" encoding="UTF-8"?>
<svg width="30px" height="30px" viewBox="0 0 30 30" version="1.1" xmlns="http://www.w3.org/2000/svg" xmlns:xlink="http://www.w3.org/1999/xlink">
    <!-- Generator: Sketch 52.6 (67491) - http://www.bohemiancoding.com/sketch -->
    <title>Shape</title>
    <desc>Created with Sketch.</desc>
    <g id="Page-1" stroke="none" stroke-width="1" fill="none" fill-rule="evenodd">
        <path d="M21.02925,15 L30,23.961002 L26.841,23.961 C26.298,23.96175 25.7775,23.74725 25.3935,23.364 L17.025,15 L25.3935,6.62925 C25.7775,6.246 26.298,6.03075 26.841,6.0315 L30,6.03149805 L21.02925,15 Z M4.60425,6.62925 C4.221,6.24675 3.70125,6.0315 3.159,6.0315 L0,6.0315 L8.9685,15 L0,23.961002 L3.159,23.961 C3.70125,23.96175 4.221,23.7465 4.60425,23.364 L12.975,15 L4.60425,6.62925 Z M15,17.025 L6.62925,25.39575 C6.24675,25.779 6.0315,26.29875 6.0315,26.841 L6.0315,30 L15,21.0315 L23.9685,30 L23.9685,26.841 C23.96775,26.29875 23.75175,25.779 23.3685,25.39575 L15,17.025 Z M15,12.975 L23.3685,4.60425 C23.75175,4.221 23.96775,3.70125 23.9685,3.159 L23.9685,0 L15,8.9685 L6.0315,0 L6.0315,3.159 C6.0315,3.70125 6.24675,4.221 6.62925,4.60425 L15,12.975 Z" id="Shape" fill="#FFFFFF" fill-rule="nonzero"></path>
    </g>
</svg>