<?xml version="1.0" encoding="UTF-8"?>
<svg width="30px" height="30px" viewBox="0 0 30 30" version="1.1" xmlns="http://www.w3.org/2000/svg" xmlns:xlink="http://www.w3.org/1999/xlink">
    <!-- Generator: Sketch 52.6 (67491) - http://www.bohemiancoding.com/sketch -->
    <title>Shape</title>
    <desc>Created with Sketch.</desc>
    <g id="Page-1" stroke="none" stroke-width="1" fill="none" fill-rule="evenodd">
        <path d="M14.9786302,30 C14.637535,30 14.2964398,29.7041096 14.1690428,29.3654794 C13.2739763,26.6572603 12.2934303,23.9490411 11.1846656,21.2835617 C10.4580918,19.5041096 9.662477,17.7534247 8.79782125,16.0364383 C7.43344057,13.2443836 5.98440252,10.4934247 4.36440593,7.869863 L4.10879003,7.48931507 C2.91536788,5.37369863 1.55098718,3.3 0.144688767,1.2690411 C-0.069009415,0.973150683 -0.0262697792,0.63452055 0.144688767,0.338630133 C0.272085758,0.127397258 0.527701658,0 0.784139475,0 C0.868796833,0 0.954276108,0 1.03975538,0.042739725 C5.34495181,1.39643836 9.35179267,3.5539726 12.8901414,6.38958904 C13.0602781,6.51616438 13.2312366,6.64273973 13.4013733,6.81205479 L14.4246588,7.70136983 L15.0641094,8.29315067 L15.5326016,7.869863 L16.5558872,6.98136987 C16.7260238,6.85479452 16.8542427,6.72821918 17.0243793,6.60082192 C20.6482073,3.68136987 24.4849116,1.43835617 28.9602446,0.0846575333 C29.0457239,0.042739725 29.1739428,0.042739725 29.2586002,0.042739725 C29.5142161,0.0846575333 29.7279143,0.169315067 29.8553113,0.380547942 C30.0690094,0.63452055 30.0262698,1.01589041 29.8553113,1.31178083 C28.4062732,3.34273972 27.1701114,5.37369863 25.89121,7.48931507 L25.8484703,7.57397258 C25.8484703,7.57397258 25.7210733,7.82794517 25.6355941,7.91260275 C24.0155975,10.6208219 22.4810802,13.4556164 21.1166995,16.3331507 C20.3071122,17.9827397 19.5394425,19.6758904 18.8572522,21.3682192 C17.7493093,23.9917808 16.7260238,26.7846575 15.8309572,29.5347945 C15.6608205,29.7887671 15.3197253,30 14.9786302,30 Z M3.98057111,4.14657534 C4.49262483,4.95041096 5.04659627,5.7969863 5.51508843,6.60082192 C5.51508843,6.60082192 5.68604698,6.89753425 5.77070433,7.02410959 C7.39070093,9.73232875 8.88247858,12.5243836 10.2468593,15.3172603 C11.0991863,17.0523288 11.9095955,18.8293151 12.6337036,20.6490411 C13.2312366,22.0454794 13.785208,23.4838356 14.2964398,24.9221918 L14.9786302,26.6572603 L15.6180809,24.9221918 C16.1293127,23.4838356 16.7260238,22.0454794 17.3227348,20.6490411 C17.9202678,19.1679452 18.6016363,17.6868493 19.2838266,16.2484932 L19.3693059,16.0364383 L19.0282108,15.5284932 C18.9854711,15.4446575 18.8999918,15.36 18.8572522,15.2753425 L18.7725948,15.1906849 C18.6443759,15.0213698 18.5588967,14.8520548 18.4314997,14.7246575 C18.3460203,14.5980822 18.2605411,14.5134247 18.1758838,14.3868493 C18.0476648,14.2175343 17.9621856,14.090137 17.8347886,13.9208219 C17.7493093,13.7942466 17.66383,13.6668493 17.5791727,13.5821918 C17.4509538,13.4128768 17.3227348,13.2863013 17.2380775,13.1169863 C17.1525983,12.990411 17.0671189,12.9057534 16.9816397,12.7783562 C16.8542427,12.6090411 16.7260238,12.4824658 16.5986268,12.3131507 L16.5558872,12.2284932 C16.4704078,12.1438356 16.4276683,12.0591781 16.3430109,11.9745206 C16.214792,11.8052055 16.0865731,11.6786302 15.9591761,11.5093151 L15.8736968,11.4246575 C15.8309572,11.34 15.7454779,11.2972603 15.7035602,11.2126028 C15.5326016,11.0441096 15.4052047,10.8747945 15.2342461,10.7473973 L15.1487668,10.6627398 L15.0213698,10.5361644 C14.7657539,10.2821918 14.5520558,10.0282192 14.2964398,9.81698633 C13.6569891,9.22438358 13.0175384,8.63178083 12.3780877,8.08191783 C12.2079511,7.95452058 12.0797322,7.82794517 11.9095955,7.70136983 C9.7356275,5.92356164 7.34796129,4.44246575 4.83289809,3.25808219 L2.78714897,2.28493151 L3.98057111,4.14657534 Z M25.3372385,3.13150685 C22.6939564,4.31589041 20.2643725,5.96630137 18.0049252,7.82794517 C17.8347886,7.95452058 17.7065697,8.08191783 17.536433,8.20849317 C17.2380775,8.46246575 16.9816397,8.67452058 16.6841061,8.970411 L16.1720523,9.43561642 L16.4276683,9.689589 C16.4704078,9.73232875 16.5131475,9.77424658 16.5131475,9.81698633 L16.6413664,9.94356167 C16.811503,10.1128768 16.9397219,10.2821918 17.1098586,10.4515068 C17.2380775,10.5780822 17.3227348,10.7054794 17.4509538,10.8320548 C17.5791727,11.0013698 17.7493093,11.1706849 17.8775282,11.34 C18.0049252,11.4665753 18.0904045,11.5939726 18.2186233,11.7205479 C18.3460203,11.889863 18.5169789,12.0591781 18.6443759,12.270411 L18.6871155,12.3131507 C18.7725948,12.439726 18.8572522,12.5243836 18.9427314,12.6517808 C19.0709503,12.8210959 19.241087,13.0323288 19.3693059,13.2016438 C19.4120455,13.2443836 19.4547852,13.2863013 19.4547852,13.3282192 C19.4967028,13.3709589 19.5394425,13.4128768 19.5394425,13.4556164 L20.2216328,14.3868493 L20.7328647,13.4128768 C21.8416294,11.2553425 22.992312,9.18164383 24.2284738,7.15068493 L24.2712134,7.0660274 L24.3994323,6.81287671 L24.4840897,6.68547945 C25.038883,5.7969863 25.5073752,4.95041096 26.0613466,4.06191781 L27.1701114,2.32684932 L25.3372385,3.13150685 Z" id="Shape" fill="#FFFFFF" fill-rule="nonzero"></path>
    </g>
</svg>