<?xml version="1.0" encoding="UTF-8"?>
<svg width="30px" height="34px" viewBox="0 0 30 34" version="1.1" xmlns="http://www.w3.org/2000/svg" xmlns:xlink="http://www.w3.org/1999/xlink">
    <!-- Generator: Sketch 52.6 (67491) - http://www.bohemiancoding.com/sketch -->
    <title>Logo</title>
    <desc>Created with Sketch.</desc>
    <g id="Page-1" stroke="none" stroke-width="1" fill="none" fill-rule="evenodd">
        <path d="M15,0 C17.0710678,0 18.75,1.69136872 18.75,3.77777777 C18.75,5.53805413 17.5549229,7.01713763 15.9375454,7.43652729 L15.9374102,20.0900653 C17.0512651,19.170123 18.6286895,18.7 20.6230914,18.7 C23.320845,18.7 24.7838772,17.5268678 25.2190908,14.9664776 C23.6492879,14.5153636 22.5,13.0595579 22.5,11.3333334 C22.5,9.24692427 24.1789322,7.55555555 26.25,7.55555555 C28.3210679,7.55555555 30,9.24692427 30,11.3333334 C30,13.1179652 28.7716236,14.6135691 27.1201699,15.0088804 C26.5941477,18.64989 24.3521255,20.5888889 20.6230914,20.5888889 C17.651447,20.5888889 16.2029299,21.7076448 15.9349893,24.0944316 L15.9375284,24.072765 L15.9375454,26.5634727 C17.5549229,26.9828624 18.75,28.461946 18.75,30.2222223 C18.75,32.3086312 17.0710678,34 15,34 C12.9289322,34 11.25,32.3086312 11.25,30.2222223 C11.25,28.4619355 12.4450911,26.9828451 14.062483,26.5634654 L14.0624716,24.0891134 L14.0547095,24.0232082 C13.7660388,21.6853816 12.316928,20.5888889 9.375,20.5888889 C5.64580199,20.5888889 3.40374651,18.6497196 2.87782949,15.0083706 C1.22740477,14.6123856 0,13.117259 0,11.3333334 C0,9.24692427 1.67893218,7.55555555 3.75,7.55555555 C5.82106781,7.55555555 7.5,9.24692427 7.5,11.3333334 C7.5,13.0602252 6.34982338,14.5164892 4.7791073,14.9670829 C5.2144075,17.5270226 6.67742448,18.7 9.375,18.7 C11.3705559,18.7 12.9486518,19.1706672 14.0626143,20.0916628 L14.062483,7.43653462 C12.4450911,7.01715494 11.25,5.53806442 11.25,3.77777777 C11.25,1.69136872 12.9289322,0 15,0 Z M15,28.3333334 C13.9727124,28.3333334 13.1356065,29.1766398 13.1356065,30.2222223 C13.1356065,31.2678045 13.9727124,32.111111 15,32.111111 C16.0272876,32.111111 16.8643935,31.2678045 16.8643935,30.2222223 C16.8643935,29.1766398 16.0272876,28.3333334 15,28.3333334 Z M26.25,9.44444445 C25.2227124,9.44444445 24.3856065,10.2877511 24.3856065,11.3333334 C24.3856065,12.3789156 25.2227124,13.2222222 26.25,13.2222222 C27.2772875,13.2222222 28.1143935,12.3789156 28.1143935,11.3333334 C28.1143935,10.2877511 27.2772875,9.44444445 26.25,9.44444445 Z M3.75,9.44444445 C2.72271239,9.44444445 1.88560653,10.2877511 1.88560653,11.3333334 C1.88560653,12.3789156 2.72271239,13.2222222 3.75,13.2222222 C4.77728761,13.2222222 5.61439347,12.3789156 5.61439347,11.3333334 C5.61439347,10.2877511 4.77728761,9.44444445 3.75,9.44444445 Z M15,1.88888889 C13.9727124,1.88888889 13.1356065,2.73219551 13.1356065,3.77777777 C13.1356065,4.82336005 13.9727124,5.66666666 15,5.66666666 C16.0272876,5.66666666 16.8643935,4.82336005 16.8643935,3.77777777 C16.8643935,2.73219551 16.0272876,1.88888889 15,1.88888889 Z" id="Logo" fill="#FFFFFF" fill-rule="nonzero"></path>
    </g>
</svg>