<?xml version="1.0" encoding="UTF-8"?>
<svg width="30px" height="29px" viewBox="0 0 30 29" version="1.1" xmlns="http://www.w3.org/2000/svg" xmlns:xlink="http://www.w3.org/1999/xlink">
    <!-- Generator: Sketch 52.6 (67491) - http://www.bohemiancoding.com/sketch -->
    <title>Fill-1</title>
    <desc>Created with Sketch.</desc>
    <g id="Page-1" stroke="none" stroke-width="1" fill="none" fill-rule="evenodd">
        <path d="M7.666366,11.0893953 C8.22318133,12.4764612 9.0305805,13.1710851 10.0894171,13.1710851 C10.4928606,13.1710851 10.8375842,13.0269242 11.1228197,12.7382667 C11.4086527,12.4497772 11.5520386,12.0988571 11.5520386,11.6863455 C11.5520386,10.8627488 11.0356787,10.4497338 10.0060313,10.4497338 C9.37931542,10.4497338 8.59956925,10.6626187 7.666366,11.0893953 Z M21.5717257,13.9955209 C22.4530368,14.5721643 23.0605493,15.1737297 23.3968233,15.7979513 C23.7319025,16.4246904 23.8988447,17.2519792 23.8988447,18.2821672 C23.8988447,21.1396238 22.5853274,23.6413773 19.9584636,25.7850781 C17.3297222,27.9283594 14.2701402,29 10.7761331,29 C7.51922475,29 4.90857727,28.1760677 2.94572672,26.5266927 C0.9825348,24.8780729 0,22.6795776 0,19.931794 C0,17.9517217 0.471381142,16.2318605 1.41457017,14.7676794 C2.35835663,13.3054282 3.91306945,11.8790076 6.07905001,10.4908507 C5.86951883,9.58636288 5.76590545,8.79750579 5.76590545,8.12537039 C5.76590545,5.90379919 6.56203858,3.99521991 8.15498767,2.39652778 C9.74904625,0.798674773 11.6489948,0 13.8581618,0 C15.2278385,0 16.3344704,0.315760998 17.179423,0.945185185 C18.0254851,1.57469329 18.4489003,2.41020544 18.4489003,3.45172164 C18.4489003,4.24561343 18.1784301,4.92756655 17.6365508,5.49523148 C17.0961227,6.06440683 16.4525077,6.3486169 15.7068157,6.3486169 C15.1591327,6.3486169 14.8849073,6.14957755 14.8849073,5.75074363 C14.8849073,5.61337963 14.9760597,5.38723669 15.1573404,5.07063658 C15.3802713,4.6727257 15.4915661,4.32843461 15.4915661,4.04011284 C15.4915661,3.54561921 15.2497731,3.13319155 14.7626024,2.80316551 C14.2759439,2.47364294 13.6711626,2.3088397 12.9480027,2.3088397 C11.4744565,2.3088397 10.1566718,2.94749421 8.99618492,4.22513889 C7.83416167,5.50345486 7.25438767,6.96746816 7.25438767,8.61592013 C7.25438767,8.90407408 7.27367642,9.31658565 7.31208342,9.8524479 C8.20679433,9.42617483 9.18608583,9.21303817 10.2481657,9.21303817 C11.3107577,9.21303817 12.1644158,9.46057869 12.8080308,9.9555758 C13.4510482,10.4497338 13.7737518,11.1172541 13.7737518,11.9545283 C13.7737518,12.7654542 13.4826273,13.421059 12.9030239,13.922853 C12.3232498,14.4251505 11.5578423,14.6752084 10.6073986,14.6752084 C8.85945625,14.6752084 7.48952342,13.6995631 6.49683214,11.7489439 C4.34604366,13.3677749 3.27030803,15.4802604 3.27030803,18.0890017 C3.27030803,20.5722946 4.17380988,22.7162471 5.9803015,24.520272 C7.784318,26.3253038 9.94364142,27.2273583 12.453492,27.2273583 C14.9079514,27.2273583 17.0585692,26.4155092 18.9057722,24.7889584 C20.7535726,23.1631626 21.6772168,21.2679254 21.6772168,19.0996383 C21.6772168,18.1128328 21.3275429,17.2519792 20.6282806,16.5180006 C19.9296157,15.7844415 19.113511,15.4171586 18.1764671,15.4171586 C17.2811587,15.4171586 16.517202,15.724948 15.8805003,16.337338 C15.2441401,16.9523293 14.9271548,17.6942796 14.9271548,18.5626012 C14.9271548,19.1014844 15.0844526,19.5565393 15.398536,19.9296962 C15.7126193,20.3020978 16.101639,20.4888859 16.5623515,20.4888859 C16.9675874,20.4888859 17.295668,20.2686169 17.5473614,19.827743 C17.7044885,19.5800347 17.8681874,19.4571036 18.0406772,19.4571036 C18.3970083,19.4571036 18.5610485,19.6616812 18.5322007,20.070081 C18.5045477,20.5612182 18.2848599,20.9728067 17.8719427,21.3067766 C17.4599643,21.6399913 16.9608448,21.8074797 16.3728772,21.8074797 C15.450172,21.8074797 14.6542096,21.4019328 13.9833683,20.5910909 C13.3130392,19.7804167 12.9767652,18.8114004 12.9767652,17.6844618 C12.9767652,15.3906424 14.7549211,13.5008594 18.3087576,12.016875 L21.3112413,10.7571036 C25.9441421,8.81655382 28.2602511,6.57920718 28.2602511,4.04497975 C28.2602511,3.23296296 27.9884153,2.54152778 27.4459387,1.9700868 C26.9021818,1.39831018 26.244655,1.11225405 25.4698591,1.11225405 C24.9054478,1.11225405 24.4087181,1.33235533 23.9783897,1.7713831 C23.5473785,2.21015914 23.3335799,2.7075897 23.3335799,3.26518518 C23.3335799,3.7798177 23.6552593,4.10086516 24.2974233,4.22513889 C25.0654768,4.36183159 25.4515092,4.62783275 25.4515092,5.02305846 C25.4515092,5.47265914 25.2593037,5.88282118 24.8775387,6.25010417 C24.4944082,6.61856192 24.0748337,6.80190973 23.6153161,6.80190973 C22.9340624,6.80190973 22.3878303,6.55495659 21.977815,6.06029513 C21.567885,5.56529804 21.3619385,4.92018229 21.3619385,4.12209491 C21.3619385,3.03778357 21.7817689,2.08554977 22.6198083,1.26765914 C23.4591279,0.450104169 24.4373099,0.0406134229 25.5561467,0.0406134229 C26.8553253,0.0406134229 27.9211605,0.491808448 28.7527134,1.39168113 C29.5842662,2.29096643 30,3.43603009 30,4.82351562 C30,6.63744211 29.2873379,8.31375289 27.8617578,9.8524479 C27.0091238,10.787228 25.3816085,11.9069502 22.9772489,13.2111112 C22.6687985,13.391438 22.2013434,13.6519849 21.5717257,13.9955209 Z" id="Fill-1" fill="#FFFFFF" fill-rule="nonzero"></path>
    </g>
</svg>